<svg width="256.000000" height="430.682312" viewBox="0 0 256 430.682" fill="none" xmlns="http://www.w3.org/2000/svg" xmlns:xlink="http://www.w3.org/1999/xlink">
	<desc>
			Created with Pixso.
	</desc>
	<defs/>
	<path id="Vector" d="M0 415.78C0.6 415.98 1.2 416.12 1.77 416.26C2.34 416.41 2.94 415.98 3.54 415.78C3.7 415.71 3.87 415.68 4.04 415.68C4.22 415.69 4.39 415.72 4.54 415.79C4.7 415.86 4.84 415.96 4.96 416.09C5.08 416.21 5.17 416.36 5.23 416.52C6.03 416.5 6.83 416.39 7.61 416.21L6.06 416.03C5.84 416.03 5.63 415.97 5.44 415.86C5.25 415.75 5.09 415.6 4.97 415.42C4.85 415.24 4.78 415.03 4.76 414.81C4.74 414.59 4.78 414.38 4.86 414.18C4.64 413.94 4.5 413.64 4.46 413.33C4.42 413.01 4.48 412.69 4.63 412.4C7.6 407.1 11.08 402.1 15.02 397.48C18.96 392.46 23.2 387.68 27.72 383.18C36.66 374.27 46.51 366.31 57.11 359.44C58.45 358.58 60.48 359.78 59.74 361.47C54.54 372.95 47.61 383.56 39.19 392.93C33.55 399.37 27.27 405.24 20.45 410.43C24.46 408.57 28.52 406.74 32.5 404.71C42.86 399.59 52.33 393.73 59.31 384.32C60.34 382.98 62.37 384.58 61.4 385.92C53.87 395.87 44.24 404.04 33.19 409.83C30.55 411.29 27.81 412.69 25.03 413.98C31.04 414.26 37.06 414.52 43.08 414.75C45.66 412.89 48.18 410.94 50.72 409.03C50.56 408.66 50.54 408.25 50.67 407.86C50.79 407.48 51.06 407.16 51.41 406.97C53.19 406 54.99 405.14 56.76 404.11C59.11 402.25 61.43 400.39 63.69 398.39C63.53 398.15 63.45 397.87 63.45 397.59C63.45 397.3 63.53 397.03 63.69 396.79C74.96 375.37 86.75 353.29 109.47 342.45C109.78 342.32 110.12 342.27 110.45 342.31C110.79 342.35 111.11 342.48 111.38 342.68C111.65 342.89 111.86 343.16 111.99 343.47C112.12 343.78 112.17 344.12 112.13 344.46C108.58 360.47 97.28 372.71 85.95 383.86C80.62 389.12 75.07 394.07 69.32 398.82L72.58 397.65L80.88 394.19C86.44 392.17 91.83 389.73 97.02 386.89C101.74 384.03 104.43 379 107.29 374.37C110.58 368.96 113.84 363.59 117.05 358.15C117.88 356.75 120.25 358.15 119.51 359.56C116.33 365.59 113.24 371.65 110.18 377.74C109.15 379.77 108.12 381.78 106.92 383.66C111.07 381.32 115.19 378.97 119.17 376.34C122.3 372.2 124.81 367.62 126.63 362.76C130.94 352.65 133.76 341.97 134.99 331.04C136.02 319.21 135.22 307.37 137.02 295.53C138.67 284.52 141.55 273.73 145.6 263.36C145.45 263.2 145.31 263.03 145.2 262.84C142.78 257.95 140.93 252.8 139.68 247.49C138.71 243.48 136.82 237.13 139.68 233.5C141.07 232.09 142.66 230.9 144.4 229.96C146.48 228.51 148.28 226.71 149.72 224.64C152.9 220.32 154.3 214.94 153.62 209.62C153.33 207.79 155.76 207.36 156.48 208.82C160.85 217.48 162.22 227.35 160.37 236.88C159.6 241.49 158.19 245.97 156.19 250.2C154.44 253.83 151.96 258.78 148.29 260.78C148.46 260.86 148.62 260.96 148.74 261.1C148.87 261.23 148.97 261.39 149.04 261.56C149.11 261.74 149.14 261.92 149.13 262.1C149.13 262.29 149.08 262.47 149.01 262.64C144.12 274.45 140.97 286.91 139.65 299.62C138.36 312.31 140.31 325.15 138.56 337.77C137.29 347.1 134.9 356.25 131.44 365.02L133.9 363.56C134.5 362.84 135.07 362.13 135.65 361.39C135.7 361.06 135.84 360.75 136.05 360.48C136.25 360.22 136.52 360.01 136.82 359.87C140.25 355.14 142.98 349.95 144.95 344.46C149.12 333.02 151.01 320.72 154.73 309.08C158.65 296.84 163.74 285.03 167.86 272.85C172.59 258.95 175.88 244.48 173.96 229.73C173.93 229.49 173.94 229.25 174 229.02C174.06 228.79 174.16 228.58 174.3 228.39C174.44 228.2 174.62 228.04 174.82 227.92C175.03 227.8 175.25 227.72 175.49 227.68C175.72 227.65 175.96 227.66 176.19 227.72C176.42 227.78 176.64 227.88 176.83 228.02C177.02 228.17 177.18 228.34 177.3 228.55C177.42 228.75 177.5 228.98 177.54 229.21C181.34 256.06 168.72 281 160.37 305.74C157.51 314.51 155.5 323.52 153.21 332.45C158.99 323.02 163.36 312.79 166.18 302.1C166.58 300.76 168.58 301.62 168.21 302.96C165.6 313.87 161.71 324.43 156.62 334.42C153.82 338.92 151.38 343.63 149.32 348.52L148.55 350.75C160.4 337.51 171.1 323.07 176.28 305.82C179.11 295.14 181.26 284.29 182.71 273.34C184.49 262.5 186.2 251.63 187.95 240.77C189.95 228.3 191.44 215.54 194.3 203.22C194.37 202.86 194.56 202.54 194.85 202.3C195.13 202.07 195.48 201.94 195.85 201.94C196.21 201.94 196.57 202.07 196.85 202.3C197.13 202.54 197.32 202.86 197.39 203.22C199.93 211.35 201.44 219.76 201.88 228.27C202 233.78 201.65 239.29 200.85 244.74C201.51 243.2 202.17 241.68 202.8 240.14C204.67 235.8 206.25 231.35 207.52 226.81C207.95 224.98 208.35 223.12 208.69 221.29C209.1 218.14 209.04 214.96 208.52 211.83C205.66 201.33 198.25 193.07 192.84 183.89C190.33 179.83 188.4 175.44 187.12 170.85C185.6 165.13 185.06 159.15 184.09 153.32C183.68 151.07 183.16 148.84 182.51 146.65L182.26 146.37C181.92 146.63 181.51 146.78 181.08 146.78C180.66 146.78 180.24 146.63 179.91 146.37C167.55 137.22 151.3 136.93 137.91 130.12C132.2 127.18 127.2 123.04 123.25 117.98C119.3 112.92 116.49 107.06 115.02 100.81C114.98 100.53 115.02 100.24 115.13 99.97C115.24 99.7 115.42 99.47 115.65 99.3C115.88 99.12 116.15 99.01 116.43 98.97C116.72 98.93 117.01 98.96 117.28 99.07C131.96 107.3 145.89 116.74 160 126.09C166.38 130.32 173.22 134.21 179.28 138.87C175.54 131.49 171.02 124.53 165.8 118.11C159.91 111.39 153.49 105.15 146.6 99.44C132.96 88 119.08 76.85 109.24 61.69C108.21 60.09 110.52 58.26 111.58 59.86C119.51 71.87 131.3 80.59 142.8 89.26C142.34 88.69 141.86 88.14 141.43 87.54C134.79 78.56 131.87 67.53 123.29 60C108.98 47.28 88.95 43.56 72.1 35.24C62.82 31.04 54.66 24.71 48.29 16.77C48.07 16.47 47.96 16.1 48.01 15.73C48.06 15.36 48.25 15.02 48.55 14.79C48.85 14.57 49.22 14.47 49.59 14.51C49.96 14.56 50.3 14.75 50.52 15.05C62.43 30.58 82.68 35.07 100.08 41.76C107.35 44.4 114.29 47.85 120.77 52.05C114.68 46.88 108.2 42.18 101.4 37.99C87.81 29.12 72.79 18.97 67.89 2.58C67.72 2.2 67.68 1.78 67.79 1.37C67.89 0.97 68.13 0.61 68.46 0.36C68.79 0.11 69.2 -0.02 69.62 0C70.04 0.01 70.44 0.17 70.75 0.44C79.34 6.41 87.66 12.36 96.08 18.37C103.06 23.19 109.75 28.42 116.1 34.04C121.97 39.2 126.97 45.26 130.93 52C132.95 55.61 134.55 59.45 135.67 63.44C135.93 64.44 136.19 65.44 136.42 66.3C137.1 68.21 137.63 70.17 138.02 72.16C139.11 74.33 140.17 76.5 141.28 78.68C147.26 89.49 155.85 96.92 165.49 103.76C164.05 98.24 162.33 92.8 160.34 87.46C155.53 76.38 148.59 66.35 139.91 57.95C137.96 55.92 141.17 53.08 143.29 54.6C151.91 61.18 158.84 69.73 163.49 79.54C165.92 84.46 167.83 89.61 169.21 94.92C170.56 101.37 172.29 107.73 174.39 113.97C178.59 124.75 184.83 134.61 186.89 146.14C186.89 146.77 187.09 147.37 187.18 148C187.71 149.48 187.9 151.06 187.75 152.63C188.09 156.38 188.35 160.12 188.92 163.84C189.76 169.76 191.64 175.48 194.47 180.74C197.82 186.86 202 192.49 205.49 198.5C203.43 191.52 201.23 184.6 199.62 177.51C196.96 165.57 195.05 153.48 193.9 141.31C193.9 140.02 195.79 139.7 195.93 141.02C197.2 152 199.22 162.88 201.97 173.59C202.26 174.74 202.63 175.85 202.94 176.99C202.31 172.53 201.8 168.01 201.46 163.5C200.14 146.48 200.48 129.38 202.46 112.42C202.51 112.06 202.68 111.72 202.95 111.46C203.21 111.2 203.55 111.03 203.92 110.97C204.28 110.92 204.66 110.99 204.98 111.17C205.31 111.35 205.57 111.63 205.72 111.97C215.98 144.02 218.77 177.99 213.87 211.28C214.45 214.03 214.64 216.84 214.44 219.63C213.93 225.35 211.07 229.96 209.04 235.05C209.04 235.05 209.04 235.25 209.04 235.36C208.38 237.76 207.72 240.16 207.01 242.54C204.3 251.69 200.88 260.61 196.76 269.22C192.16 281.57 187.12 294.01 181.48 305.94C181.37 306.2 181.19 306.43 180.96 306.61C180.73 306.78 180.45 306.9 180.17 306.94C177.54 315.44 173.68 323.51 168.72 330.9C163.72 338.11 158.24 344.97 152.3 351.43C166.12 343.11 178.91 332.65 185.06 317.6C187.49 311.68 189.07 305.45 191.47 299.5C193.77 294.12 196.45 288.9 199.48 283.89C206 272.82 213.27 262.24 218.08 250.26C223.49 236.61 226.26 222.05 226.23 207.36C226.22 207.23 226.22 207.1 226.23 206.96C224.44 202.94 223.69 198.53 224.04 194.14C224.4 189.75 225.85 185.51 228.27 181.83C230.53 178.19 233.73 175.23 237.54 173.25C240.97 171.48 248.06 170.39 248.35 165.61C248.35 163.81 251.21 163.93 251.44 165.61C252.61 173.82 251.17 182.2 247.3 189.54C243.44 196.88 237.36 202.82 229.92 206.51C229.9 206.72 229.82 206.92 229.71 207.11C229.6 207.29 229.44 207.44 229.27 207.56C229.4 220.47 227.47 233.31 223.54 245.6C219.24 257.92 213.47 269.68 206.38 280.63C202.85 286.25 199.68 292.09 196.88 298.1C194.02 304.31 192.59 310.88 190.41 317.32C186.72 327.93 180.08 337.28 171.27 344.26C167.02 347.68 162.51 350.77 157.79 353.52C167.72 350.66 177.68 348.57 187.12 344.14C203.56 336.42 217.59 324.38 227.72 309.31C227.52 309.07 227.39 308.77 227.36 308.45C227.33 308.13 227.4 307.82 227.55 307.54C230.09 302.31 230.68 296.35 229.21 290.72C228.15 285.26 225.95 279.28 226.69 273.57C227.38 268.48 233.19 267.25 236.99 264.99C242.06 262.13 247.18 257.64 247.23 251.29C247.29 251.01 247.42 250.75 247.61 250.55C247.8 250.34 248.05 250.19 248.32 250.12C248.59 250.05 248.88 250.05 249.15 250.14C249.42 250.23 249.66 250.39 249.84 250.6C262.8 269.16 254.19 294.93 234.36 304.36C226.9 318.09 216.54 330.04 204 339.37C197.49 344.28 190.43 348.42 182.97 351.72C174.47 354.92 165.78 357.56 156.93 359.61C149.41 361.74 142.18 364.79 135.42 368.71C134.3 369.82 133.16 370.94 131.93 372C129.53 374.04 127.03 375.94 124.43 377.71C121.06 381.73 116.63 384.7 111.64 386.29C111.41 386.37 111.16 386.39 110.91 386.35C110.67 386.31 110.44 386.21 110.24 386.06C107.15 387.64 104 389.07 100.88 390.38L100.68 390.38C105.68 389.45 110.72 388.61 115.79 387.87L125.69 386.47C143.49 378.76 162.25 373.51 181.46 370.85C181.91 370.8 182.36 370.89 182.77 371.09C183.18 371.3 183.51 371.62 183.74 372.01C183.97 372.4 184.08 372.86 184.05 373.31C184.03 373.77 183.87 374.2 183.6 374.57C178.59 380.86 171.04 383.58 163.57 385.32C154.59 387.41 145.43 388.72 136.33 389.98C118.94 392.38 101.37 394.36 84.29 398.56L83.83 398.73C77.93 400.96 71.88 402.75 65.72 404.11C63.83 404.82 61.94 405.51 60 406.28C56.02 409.29 51.98 412.15 47.83 414.86C50.92 414.98 54.02 415.06 57.11 415.12C57.21 414.84 57.39 414.59 57.62 414.4C57.86 414.22 58.14 414.1 58.44 414.07C58.74 414.04 59.04 414.09 59.31 414.22C59.58 414.35 59.81 414.55 59.97 414.8C60.05 414.93 60.15 415.06 60.25 415.18L69.12 415.35C79.68 415.35 90.24 415.12 100.77 414.29C111.3 413.46 121.28 411.66 131.56 410.26C132 410.21 132.45 410.3 132.85 410.5C133.25 410.71 133.59 411.02 133.81 411.41C134.04 411.8 134.15 412.25 134.13 412.7C134.11 413.15 133.96 413.58 133.7 413.95C129.87 419.87 122.26 421.98 115.93 424.27C108.4 427.29 100.52 429.36 92.47 430.42C80.77 431.62 68.04 428.73 59.91 420.04C45.6 419.61 31.55 418.49 17.42 417.18L16.19 417.66C12.24 419.07 6.43 421.07 1.88 419.72L0 415.78ZM149.98 254.49C151.17 252.52 152.25 250.49 153.21 248.4C154.99 244.44 156.22 240.25 156.88 235.96C157.77 229.61 157.42 223.14 155.85 216.92C154.46 222.92 150.93 228.2 145.92 231.79C143.46 233.47 140.54 234.42 140.83 238.05C141.15 240.65 141.68 243.22 142.43 245.74C143.64 250.37 145.26 254.89 147.26 259.24C148.05 257.59 148.96 256 149.98 254.49ZM154.33 125.63C142.89 118.31 130.95 111.34 119.39 103.99C121.28 109.86 124.51 115.21 128.83 119.62C133.14 124.02 138.43 127.37 144.26 129.38C153.5 132.75 163.43 134.21 172.53 137.76C166.52 133.64 160.48 129.55 154.33 125.63ZM122.86 45.88C116.06 37.75 108.2 30.59 99.48 24.57C91.1 18.43 82.46 12.62 73.9 6.79C84.32 27.06 110.07 34.81 126.09 50.4C125.06 48.85 124 47.34 122.86 45.88ZM167.29 110.28L167.12 110.28C167.2 110.35 167.28 110.42 167.35 110.51L167.29 110.28ZM211.73 203.45C213.72 185.52 213.48 167.41 211.01 149.54C209.68 140.04 207.71 130.64 205.09 121.4C203.01 147.39 204.74 173.55 210.21 199.04C210.75 200.5 211.24 201.99 211.73 203.45ZM195.53 258.24C195.96 256.58 196.42 254.89 196.79 253.23C198.76 245.17 199.72 236.89 199.65 228.58C199.63 222.25 198.77 215.96 197.11 209.85C195.9 219.09 194.24 228.27 192.64 237.42C190.73 248.69 188.89 259.96 187.12 271.25C186.38 275.94 185.66 280.66 184.89 285.38C188.15 276.22 191.78 267.22 195.53 258.24ZM229.21 204.16C234.85 200.65 239.55 195.83 242.92 190.1C246.3 184.38 248.24 177.93 248.58 171.3C247.12 172.41 245.51 173.32 243.8 173.99C239.61 175.39 235.83 177.82 232.81 181.06C230.14 184.2 228.39 188.02 227.76 192.1C227.12 196.18 227.62 200.35 229.21 204.16ZM234.27 301.39C242.15 296.85 248.02 289.49 250.7 280.8C253.06 272.5 252.47 263.63 249.01 255.72C247.66 258.93 245.54 261.74 242.83 263.93C240.76 265.63 238.52 267.12 236.16 268.39C234.99 269.05 233.79 269.59 232.61 270.22C231.56 270.7 230.69 271.53 230.17 272.57C229.65 273.61 229.5 274.8 229.75 275.94C230.5 283.97 234.24 292.93 233.53 301.22C233.78 301.21 234.04 301.25 234.27 301.33L234.27 301.39ZM149.87 382.98C157.68 381.66 167.21 380.8 174.36 376.54C163.82 378.15 153.43 380.66 143.31 384.03L149.87 382.98ZM80.85 383.12C91.21 373.05 102.28 361.81 107.09 347.89C89.07 357.3 78.11 376.11 69.09 393.93C73.1 390.35 77.02 386.78 80.85 383.18L80.85 383.12ZM92.3 426.79C99.24 425.79 106.04 423.98 112.56 421.41C116.85 420.16 121.01 418.48 124.97 416.41C116.72 417.83 108.39 418.78 100.02 419.27C89.87 420.01 79.65 420.27 69.47 420.21L64.8 420.21C72.77 425.93 82.67 428.27 92.36 426.73L92.3 426.79ZM9.72 413.23C14.3 409.83 19.05 406.77 23.46 403.05C28.13 399.1 32.51 394.82 36.56 390.24C43.2 382.73 48.96 374.49 53.73 365.68C45.1 371.21 37.12 377.7 29.95 385.04C25.82 389.33 21.94 393.85 18.34 398.59C14.79 403.25 11.84 408.28 8.52 413.12L9.72 413.23Z" fill="#E8E9E3" fill-opacity="1.000000" fill-rule="nonzero"/>
</svg>
