<svg width="256.000000" height="430.917969" viewBox="0 0 256 430.918" fill="none" xmlns="http://www.w3.org/2000/svg" xmlns:xlink="http://www.w3.org/1999/xlink">
	<desc>
			Created with Pixso.
	</desc>
	<defs/>
	<path id="Vector" d="M256 416C255.39 416.2 254.79 416.35 254.22 416.49C253.65 416.63 253.05 416.2 252.45 416C252.29 415.94 252.12 415.91 251.95 415.91C251.77 415.91 251.6 415.95 251.45 416.02C251.29 416.09 251.15 416.19 251.03 416.31C250.91 416.44 250.82 416.59 250.76 416.75C249.96 416.73 249.16 416.62 248.38 416.43L249.93 416.26C250.15 416.26 250.36 416.2 250.55 416.09C250.74 415.98 250.9 415.83 251.02 415.65C251.14 415.46 251.21 415.26 251.23 415.04C251.25 414.82 251.22 414.6 251.13 414.4C251.35 414.17 251.49 413.87 251.53 413.55C251.57 413.23 251.51 412.91 251.36 412.63C248.39 407.32 244.91 402.32 240.97 397.69C237.03 392.67 232.79 387.89 228.27 383.39C219.33 374.47 209.48 366.51 198.89 359.64C197.54 358.78 195.51 359.98 196.25 361.67C201.45 373.15 208.38 383.77 216.8 393.14C222.44 399.59 228.72 405.46 235.54 410.65C231.53 408.79 227.47 406.96 223.49 404.93C213.13 399.81 203.66 393.94 196.68 384.53C195.65 383.19 193.62 384.79 194.59 386.13C202.12 396.09 211.75 404.26 222.81 410.05C225.44 411.51 228.18 412.91 230.96 414.2C224.95 414.49 218.93 414.75 212.91 414.97C210.33 413.11 207.81 411.17 205.27 409.25C205.43 408.89 205.45 408.47 205.32 408.09C205.2 407.71 204.93 407.39 204.58 407.19C202.81 406.22 201 405.36 199.23 404.33C196.88 402.47 194.56 400.61 192.3 398.61C192.46 398.37 192.54 398.09 192.54 397.81C192.54 397.52 192.46 397.24 192.3 397.01C181.03 375.58 169.24 353.49 146.52 342.64C146.21 342.51 145.87 342.46 145.54 342.5C145.2 342.54 144.88 342.67 144.61 342.87C144.34 343.07 144.13 343.35 144 343.66C143.87 343.97 143.82 344.31 143.86 344.65C147.41 360.67 158.71 372.91 170.04 384.07C175.37 389.34 180.92 394.29 186.67 399.04L183.41 397.86L175.11 394.4C169.55 392.38 164.16 389.94 158.97 387.11C154.25 384.24 151.56 379.21 148.7 374.57C145.41 369.17 142.15 363.79 138.94 358.35C138.11 356.95 135.74 358.35 136.48 359.75C139.66 365.79 142.75 371.86 145.81 377.95C146.84 379.98 147.87 381.98 149.07 383.87C144.92 381.53 140.8 379.18 136.82 376.55C133.7 372.4 131.18 367.82 129.36 362.96C125.05 352.84 122.23 342.15 121 331.23C119.97 319.38 120.77 307.53 118.97 295.69C117.32 284.67 114.44 273.88 110.39 263.5C110.54 263.35 110.68 263.17 110.79 262.99C113.21 258.09 115.06 252.94 116.31 247.62C117.28 243.61 119.17 237.26 116.31 233.63C114.92 232.22 113.33 231.02 111.59 230.08C109.51 228.64 107.71 226.83 106.27 224.76C103.09 220.44 101.7 215.06 102.38 209.74C102.66 207.91 100.23 207.48 99.51 208.94C95.14 217.6 93.77 227.48 95.62 237.01C96.39 241.62 97.8 246.11 99.8 250.34C101.55 253.97 104.04 258.92 107.7 260.93C107.53 261 107.37 261.11 107.25 261.24C107.12 261.38 107.02 261.53 106.95 261.71C106.89 261.88 106.85 262.06 106.86 262.25C106.86 262.43 106.91 262.62 106.98 262.79C111.87 274.6 115.02 287.06 116.34 299.78C117.63 312.48 115.68 325.33 117.43 337.95C118.7 347.29 121.09 356.45 124.55 365.22L122.09 363.76C121.49 363.04 120.92 362.33 120.34 361.58C120.29 361.25 120.15 360.94 119.94 360.68C119.74 360.42 119.47 360.21 119.17 360.07C115.74 355.34 113.01 350.15 111.05 344.65C106.87 333.2 104.98 320.9 101.26 309.25C97.34 297.01 92.25 285.19 88.13 273C83.41 259.09 80.12 244.62 82.03 229.85C82.07 229.62 82.05 229.38 81.99 229.15C81.94 228.92 81.83 228.7 81.69 228.51C81.55 228.32 81.37 228.16 81.17 228.04C80.96 227.92 80.74 227.84 80.5 227.81C80.27 227.77 80.03 227.79 79.8 227.84C79.57 227.9 79.35 228.01 79.16 228.15C78.97 228.29 78.81 228.47 78.69 228.67C78.57 228.88 78.49 229.1 78.46 229.34C74.65 256.2 87.27 281.15 95.62 305.9C98.48 314.69 100.49 323.7 102.78 332.63C97 323.19 92.63 312.97 89.81 302.27C89.41 300.93 87.41 301.78 87.78 303.13C90.39 314.04 94.28 324.6 99.37 334.6C102.17 339.11 104.61 343.82 106.67 348.71L107.44 350.94C95.59 337.69 84.89 323.24 79.71 305.99C76.88 295.3 74.73 284.45 73.28 273.49C71.5 262.64 69.79 251.77 68.04 240.9C66.04 228.42 64.55 215.66 61.69 203.33C61.62 202.97 61.43 202.65 61.15 202.41C60.86 202.18 60.51 202.05 60.14 202.05C59.78 202.05 59.42 202.18 59.14 202.41C58.86 202.65 58.67 202.97 58.6 203.33C56.06 211.46 54.55 219.88 54.11 228.39C53.99 233.91 54.34 239.42 55.14 244.87C54.48 243.33 53.82 241.81 53.19 240.27C51.32 235.93 49.74 231.48 48.47 226.93C48.04 225.1 47.64 223.24 47.3 221.41C46.9 218.26 46.95 215.07 47.47 211.94C50.33 201.44 57.74 193.17 63.15 183.99C65.66 179.93 67.59 175.54 68.87 170.94C70.39 165.22 70.93 159.24 71.9 153.4C72.31 151.15 72.83 148.92 73.48 146.73L73.73 146.45C74.07 146.71 74.48 146.86 74.91 146.86C75.33 146.86 75.75 146.71 76.08 146.45C88.44 137.29 104.69 137 118.08 130.2C123.79 127.25 128.79 123.1 132.74 118.04C136.69 112.98 139.5 107.12 140.97 100.87C141.01 100.58 140.97 100.29 140.86 100.03C140.75 99.76 140.57 99.53 140.34 99.35C140.11 99.17 139.84 99.06 139.56 99.02C139.27 98.98 138.98 99.02 138.71 99.12C124.04 107.36 110.1 116.8 96 126.16C89.61 130.39 82.78 134.29 76.71 138.95C80.45 131.57 84.97 124.6 90.19 118.18C96.08 111.45 102.5 105.2 109.39 99.49C123.03 88.05 136.91 76.89 146.75 61.73C147.78 60.12 145.47 58.29 144.41 59.89C136.48 71.91 124.69 80.64 113.19 89.31C113.65 88.74 114.14 88.19 114.56 87.59C121.2 78.61 124.12 67.56 132.7 60.04C147.01 47.31 167.04 43.59 183.89 35.26C193.17 31.06 201.33 24.72 207.7 16.78C207.93 16.48 208.03 16.11 207.98 15.74C207.93 15.36 207.74 15.03 207.44 14.8C207.14 14.57 206.77 14.47 206.4 14.52C206.03 14.57 205.69 14.76 205.47 15.06C193.56 30.6 173.31 35.09 155.91 41.78C148.64 44.42 141.71 47.88 135.22 52.08C141.31 46.9 147.79 42.2 154.59 38.01C168.18 29.14 183.21 18.98 188.1 2.58C188.27 2.2 188.31 1.78 188.21 1.37C188.1 0.97 187.86 0.61 187.53 0.36C187.2 0.11 186.79 -0.02 186.37 0C185.95 0.01 185.55 0.17 185.24 0.44C176.65 6.42 168.33 12.37 159.92 18.38C152.93 23.2 146.25 28.44 139.89 34.06C134.02 39.22 129.02 45.29 125.06 52.03C123.04 55.64 121.44 59.48 120.32 63.47C120.06 64.47 119.8 65.47 119.57 66.33C118.89 68.25 118.36 70.21 117.97 72.2C116.88 74.37 115.82 76.55 114.71 78.72C108.73 89.54 100.14 96.98 90.5 103.81C91.94 98.29 93.66 92.85 95.65 87.51C100.46 76.42 107.41 66.39 116.08 57.98C118.03 55.95 114.82 53.11 112.7 54.63C104.08 61.22 97.15 69.77 92.5 79.58C90.07 84.5 88.16 89.66 86.78 94.97C85.43 101.42 83.7 107.79 81.6 114.03C77.4 124.82 71.16 134.69 69.1 146.22C69.1 146.85 68.9 147.45 68.81 148.08C68.28 149.56 68.09 151.14 68.24 152.71C67.9 156.46 67.64 160.21 67.07 163.93C66.23 169.85 64.35 175.58 61.52 180.84C58.17 186.96 53.99 192.6 50.5 198.61C52.56 191.63 54.76 184.7 56.37 177.61C59.03 165.66 60.94 153.57 62.09 141.38C62.09 140.1 60.2 139.78 60.06 141.1C58.79 152.09 56.78 162.97 54.02 173.69C53.73 174.83 53.36 175.95 53.05 177.09C53.68 172.63 54.19 168.11 54.54 163.59C55.85 146.56 55.51 129.45 53.53 112.48C53.48 112.12 53.31 111.78 53.04 111.52C52.78 111.26 52.44 111.09 52.07 111.04C51.71 110.98 51.33 111.05 51.01 111.23C50.68 111.41 50.42 111.69 50.27 112.03C40.01 144.09 37.22 178.09 42.12 211.4C41.54 214.14 41.35 216.95 41.55 219.75C42.06 225.47 44.92 230.08 46.95 235.17C46.95 235.17 46.95 235.37 46.95 235.49C47.61 237.89 48.27 240.3 48.98 242.67C51.69 251.83 55.11 260.75 59.23 269.37C63.83 281.73 68.87 294.17 74.51 306.1C74.62 306.37 74.8 306.6 75.03 306.78C75.26 306.95 75.54 307.07 75.82 307.1C78.45 315.61 82.31 323.69 87.27 331.08C92.27 338.3 97.75 345.16 103.69 351.63C89.87 343.3 77.08 332.83 70.93 317.78C68.5 311.85 66.92 305.62 64.52 299.67C62.22 294.28 59.54 289.06 56.51 284.04C49.99 272.97 42.72 262.38 37.91 250.4C32.5 236.74 29.73 222.17 29.76 207.48C29.77 207.34 29.77 207.21 29.76 207.08C31.55 203.05 32.3 198.64 31.95 194.24C31.59 189.85 30.14 185.61 27.73 181.93C25.46 178.29 22.26 175.32 18.45 173.34C15.02 171.57 7.93 170.48 7.64 165.7C7.64 163.9 4.78 164.02 4.55 165.7C3.38 173.92 4.83 182.3 8.69 189.64C12.55 196.99 18.63 202.93 26.07 206.62C26.09 206.83 26.17 207.04 26.28 207.22C26.39 207.4 26.55 207.56 26.72 207.68C26.59 220.59 28.52 233.43 32.45 245.73C36.75 258.06 42.52 269.82 49.61 280.78C53.14 286.41 56.31 292.25 59.11 298.26C61.97 304.47 63.41 311.05 65.58 317.49C69.27 328.11 75.91 337.46 84.72 344.44C88.98 347.87 93.48 350.97 98.2 353.72C88.27 350.85 78.31 348.77 68.87 344.33C52.43 336.6 38.4 324.56 28.27 309.48C28.47 309.24 28.6 308.94 28.63 308.62C28.66 308.3 28.59 307.99 28.44 307.71C25.9 302.48 25.31 296.51 26.78 290.88C27.84 285.42 30.04 279.44 29.3 273.72C28.61 268.62 22.8 267.39 19 265.13C13.93 262.27 8.81 257.78 8.76 251.43C8.7 251.15 8.58 250.89 8.38 250.68C8.19 250.48 7.94 250.33 7.67 250.26C7.4 250.18 7.11 250.19 6.84 250.28C6.57 250.36 6.33 250.52 6.15 250.74C-6.81 269.31 1.8 295.09 21.63 304.53C29.09 318.27 39.45 330.22 51.99 339.55C58.5 344.47 65.56 348.61 73.02 351.91C81.52 355.11 90.21 357.75 99.06 359.81C106.58 361.93 113.81 364.99 120.57 368.91C121.69 370.02 122.83 371.14 124.06 372.2C126.46 374.24 128.96 376.15 131.56 377.92C134.93 381.93 139.36 384.91 144.35 386.51C144.59 386.58 144.83 386.6 145.08 386.56C145.32 386.52 145.55 386.42 145.75 386.28C148.84 387.85 151.99 389.28 155.11 390.6L155.31 390.6C150.31 389.66 145.27 388.82 140.2 388.08L130.3 386.68C112.51 378.97 93.75 373.71 74.54 371.05C74.08 371.01 73.63 371.09 73.22 371.29C72.81 371.5 72.48 371.82 72.25 372.21C72.02 372.61 71.91 373.06 71.94 373.52C71.96 373.97 72.12 374.41 72.39 374.77C77.4 381.07 84.95 383.79 92.42 385.53C101.4 387.62 110.56 388.94 119.66 390.2C137.05 392.6 154.62 394.57 171.7 398.78L172.16 398.95C178.06 401.18 184.11 402.97 190.27 404.33C192.16 405.05 194.05 405.73 196 406.51C199.97 409.51 204.01 412.37 208.16 415.09C205.07 415.2 201.97 415.29 198.89 415.35C198.78 415.06 198.6 414.82 198.37 414.63C198.13 414.44 197.85 414.33 197.55 414.3C197.25 414.26 196.95 414.32 196.68 414.45C196.41 414.58 196.18 414.78 196.02 415.03C195.94 415.16 195.84 415.29 195.74 415.4L186.87 415.58C176.31 415.58 165.75 415.35 155.22 414.52C144.69 413.69 134.71 411.88 124.44 410.48C123.99 410.44 123.54 410.52 123.14 410.73C122.74 410.93 122.4 411.25 122.18 411.64C121.95 412.03 121.84 412.47 121.86 412.92C121.88 413.37 122.03 413.81 122.29 414.17C126.12 420.1 133.73 422.21 140.06 424.5C147.59 427.53 155.47 429.59 163.52 430.65C175.22 431.86 187.96 428.97 196.08 420.27C210.39 419.84 224.44 418.72 238.57 417.41L239.8 417.89C243.75 419.29 249.56 421.3 254.11 419.95L256 416ZM106.01 254.63C104.82 252.66 103.74 250.63 102.78 248.54C101 244.57 99.77 240.38 99.11 236.09C98.22 229.73 98.57 223.26 100.14 217.03C101.53 223.04 105.06 228.33 110.07 231.91C112.53 233.6 115.45 234.54 115.17 238.18C114.84 240.78 114.31 243.36 113.56 245.88C112.35 250.51 110.73 255.03 108.73 259.38C107.94 257.73 107.03 256.14 106.01 254.63ZM101.66 125.7C113.1 118.38 125.04 111.4 136.6 104.04C134.71 109.92 131.48 115.27 127.16 119.68C122.85 124.09 117.56 127.44 111.73 129.45C102.49 132.83 92.56 134.29 83.46 137.83C89.47 133.71 95.51 129.62 101.66 125.7ZM133.13 45.9C139.93 37.77 147.79 30.6 156.51 24.59C164.89 18.44 173.53 12.63 182.09 6.79C171.68 27.08 145.92 34.83 129.9 50.42C130.93 48.88 131.99 47.36 133.13 45.9ZM88.7 110.34L88.87 110.34C88.79 110.41 88.71 110.48 88.64 110.57L88.7 110.34ZM44.26 203.56C42.27 185.62 42.51 167.5 44.98 149.62C46.31 140.11 48.28 130.71 50.9 121.47C52.98 147.47 51.25 173.64 45.78 199.15C45.24 200.61 44.75 202.1 44.26 203.56ZM60.46 258.38C60.03 256.72 59.57 255.03 59.2 253.37C57.23 245.3 56.27 237.02 56.34 228.71C56.36 222.38 57.22 216.08 58.88 209.97C60.09 219.21 61.75 228.39 63.35 237.55C65.26 248.82 67.1 260.1 68.87 271.4C69.61 276.09 70.33 280.81 71.1 285.53C67.84 276.38 64.21 267.36 60.46 258.38ZM26.78 204.27C21.14 200.76 16.44 195.93 13.07 190.21C9.69 184.49 7.75 178.03 7.41 171.4C8.87 172.51 10.48 173.41 12.19 174.09C16.38 175.49 20.16 177.92 23.18 181.15C25.85 184.3 27.6 188.13 28.23 192.21C28.87 196.29 28.37 200.46 26.78 204.27ZM21.72 301.55C13.84 297.01 7.97 289.65 5.29 280.95C2.93 272.65 3.52 263.78 6.98 255.86C8.33 259.07 10.46 261.89 13.16 264.07C15.24 265.77 17.47 267.27 19.83 268.54C21 269.19 22.2 269.74 23.38 270.37C24.44 270.85 25.3 271.68 25.82 272.72C26.34 273.76 26.49 274.95 26.24 276.09C25.49 284.13 21.75 293.09 22.46 301.38C22.21 301.37 21.96 301.41 21.72 301.5L21.72 301.55ZM106.12 383.19C98.31 381.87 88.78 381.01 81.63 376.75C92.17 378.36 102.56 380.86 112.68 384.24L106.12 383.19ZM175.14 383.33C164.78 373.26 153.71 362.01 148.9 348.08C166.93 357.49 177.88 376.32 186.9 394.14C182.89 390.57 178.97 386.99 175.14 383.39L175.14 383.33ZM163.69 427.02C156.75 426.02 149.95 424.22 143.43 421.64C139.14 420.39 134.98 418.71 131.02 416.63C139.27 418.06 147.6 419.01 155.97 419.5C166.12 420.24 176.34 420.5 186.52 420.44L191.19 420.44C183.22 426.16 173.32 428.51 163.64 426.96L163.69 427.02ZM246.27 413.46C241.69 410.05 236.94 406.99 232.53 403.27C227.86 399.32 223.48 395.04 219.43 390.45C212.79 382.94 207.03 374.7 202.26 365.88C210.89 371.41 218.87 377.91 226.04 385.25C230.17 389.54 234.05 394.07 237.65 398.81C241.2 403.47 244.15 408.51 247.47 413.34L246.27 413.46Z" fill="#E8E9E3" fill-opacity="1.000000" fill-rule="nonzero"/>
</svg>
