<svg width="20" height="22" viewBox="0 0 20 22" fill="none" xmlns="http://www.w3.org/2000/svg">
<path d="M19.93 12.5156C19.4852 14.9475 18.2989 17.2015 16.549 18.981C18.5065 20.4342 19.93 21.3536 19.93 21.3536L19.4555 21.7985C19.4555 21.7985 18.0319 20.9087 15.9856 19.4555C14.0281 21.057 11.5665 21.8875 9.04563 21.7985C2.99544 21.7985 0 19.9597 0 16.1338C0 13.0198 3.23271 11.2106 5.93157 10.3209C4.56731 8.54144 3.70722 6.73232 3.70722 5.10114C3.70722 1.86844 6.2578 0 9.25324 0C13.9095 0 15.3034 2.78783 15.3034 5.10114C15.3034 7.88897 11.5962 9.75741 8.80836 10.2023C8.60076 10.2319 8.39316 10.2913 8.18556 10.3209C9.96502 13.257 12.8418 15.9855 15.3034 17.9726C17.4388 14.8586 17.6167 10.6768 17.6167 10.6768L19.93 12.5156ZM6.49506 5.10114C6.55437 6.76198 7.0289 8.39316 7.88898 9.81673C8.03727 9.78707 8.18555 9.75741 8.33384 9.75741C11.5962 9.28289 12.5156 6.96958 12.5156 5.10114C12.5156 2.31331 12.0411 0.474524 9.25324 0.474524C7.02891 0.474524 6.49506 2.31331 6.49506 5.10114ZM9.04563 21.3536C11.2996 21.4129 13.435 20.3749 14.8289 18.6251C12.0707 16.5787 8.71939 13.7909 6.40609 10.9437C4.09278 12.0114 2.75818 13.9392 2.75818 16.2525C2.75818 19.2479 4.80456 21.3536 9.04563 21.3536Z" fill="black"/>
</svg>
