<svg width="190px" height="125px" viewBox="0 0 174 112" fill="e8e9e3" xmlns="http://www.w3.org/2000/svg">
<path d="M18.4551 89.6543C17.3561 92.7627 16.6816 95.479 16.4326 97.8027C16.1167 100.647 16.38 102.911 17.2227 104.597C18.1707 106.282 19.6982 107.493 21.8047 108.23C24.0166 108.968 26.7553 109.389 30.0205 109.494V111.654H0V109.494C2.10666 108.967 4.26652 107.756 6.47852 105.86C8.69052 103.859 10.6918 100.488 12.4824 95.748L14.8457 89.6543H18.4551Z" fill="white"/>
<path d="M90.6924 99.3818C91.1819 100.622 91.6917 101.736 92.2217 102.724C92.8184 100.909 93.416 98.6899 94.0127 96.0645L95.458 89.6543H110.814L109.022 97.8027C107.548 104.544 105.336 109.073 102.387 111.391C102.276 111.481 102.162 111.567 102.049 111.654H64.4648V109.494C69.8364 109.283 73.2596 108.388 74.7344 106.809C75.1058 106.384 75.3626 105.842 75.5068 105.184C75.4083 105.042 75.3091 104.899 75.2109 104.754L75.6152 104.456C75.7867 102.516 75.178 99.7719 73.7861 96.2227L71.3281 89.6543H86.9189L90.6924 99.3818Z" fill="white"/>
<path d="M160.847 95.9062C160.847 99.6983 161.163 102.542 161.795 104.438C162.427 106.334 163.638 107.599 165.429 108.23C167.325 108.862 170.063 109.283 173.645 109.494V111.654H133.354V109.494C136.936 109.283 139.621 108.862 141.412 108.23C143.308 107.599 144.572 106.334 145.204 104.438C145.836 102.542 146.152 99.6983 146.152 95.9062V89.6543H160.847V95.9062Z" fill="white"/>
<path d="M74.8936 58.6543H59.7266L45.2549 19.9844L30.3691 58.6543H26.8672L49.6123 0H52.1406L74.8936 58.6543Z" fill="white"/>
<path fill-rule="evenodd" clip-rule="evenodd" d="M173.645 3.9502C170.063 4.05552 167.325 4.47661 165.429 5.21387C163.638 5.84581 162.427 7.11014 161.795 9.00586C161.163 10.7965 160.847 13.6408 160.847 17.5381V58.6543H121.403C118.536 58.1886 115.936 57.5456 113.604 56.7227C108.232 54.8267 103.967 52.3506 100.807 49.2959C97.7521 46.2413 95.5921 42.8711 94.3281 39.1846C93.0641 35.498 92.4326 31.9164 92.4326 28.4404C92.4326 23.2791 93.8014 18.6441 96.54 14.5361C99.384 10.3228 103.651 7.0047 109.339 4.58203C115.027 2.15948 122.084 0.948242 130.511 0.948242C132.407 0.948247 135.619 1.00112 140.148 1.10645C144.678 1.21178 149.418 1.26465 154.368 1.26465C157.844 1.26465 161.373 1.21177 164.954 1.10645C168.535 1.00111 171.433 0.895371 173.645 0.790039V3.9502ZM134.461 3.9502C124.876 3.9502 118.081 6.21481 114.078 10.7441C110.181 15.1681 108.232 21.2777 108.232 29.0723C108.232 34.2336 108.917 38.9214 110.286 43.1348C111.761 47.2426 114.447 50.5081 118.345 52.9307C122.347 55.2479 128.088 56.4062 135.566 56.4062H146.152V17.5381C146.152 12.0611 145.415 8.42744 143.94 6.63672C142.466 4.84611 139.306 3.95025 134.461 3.9502Z" fill="white"/>
<path d="M153.301 74.4383C153.349 74.3583 153.421 74.3583 153.517 74.4383C153.613 74.5023 153.637 74.5743 153.589 74.6543C153.349 75.0703 152.981 75.4863 152.485 75.9023C151.733 76.4943 150.525 77.1583 148.861 77.8943C148.445 78.9663 148.117 79.8063 147.877 80.4143C147.493 81.3583 147.141 82.1823 146.821 82.8863C146.005 84.6623 145.229 85.9823 144.493 86.8463C143.469 88.0303 142.445 88.6543 141.421 88.7183C140.477 88.7823 139.781 88.4063 139.333 87.5903C138.869 86.7583 138.845 85.7663 139.261 84.6143C139.725 83.2863 140.701 82.0463 142.189 80.8943C143.853 79.6143 145.789 78.4943 147.997 77.5343L148.333 76.5743C148.413 76.3823 148.509 76.1423 148.621 75.8543L148.765 75.4463L148.933 75.0383C149.189 74.3503 149.405 73.7903 149.581 73.3583C148.573 74.5903 147.581 75.6383 146.605 76.5023C145.469 77.5103 144.645 77.9663 144.133 77.8703C143.749 77.8063 143.533 77.5983 143.485 77.2463C143.405 76.5423 143.773 75.5183 144.589 74.1743L144.829 73.7903L145.069 73.4303C145.261 73.1263 145.405 72.8863 145.501 72.7103C145.789 72.2143 145.957 71.8383 146.005 71.5823C146.005 71.4703 146.069 71.3903 146.197 71.3423C146.309 71.3103 146.445 71.3183 146.605 71.3663C146.765 71.4143 146.885 71.4863 146.965 71.5823C147.061 71.6943 147.069 71.8143 146.989 71.9423C146.941 72.1183 146.741 72.5103 146.389 73.1183C146.277 73.3103 146.109 73.5903 145.885 73.9583L145.621 74.4143L145.357 74.8463C144.445 76.3823 144.093 77.1903 144.301 77.2703C144.573 77.3823 145.525 76.6623 147.157 75.1103C148.837 73.5263 149.981 72.2063 150.589 71.1503L150.685 70.9823L150.757 70.8383V70.8143C150.773 70.7983 150.797 70.7583 150.829 70.6943C150.925 70.5823 151.109 70.5743 151.381 70.6703C151.621 70.7663 151.773 70.8783 151.837 71.0063C151.325 71.7423 150.493 73.6143 149.341 76.6223C149.277 76.7823 149.237 76.9023 149.221 76.9823C150.325 76.4543 151.253 75.9663 152.005 75.5183C152.485 75.2303 152.917 74.8703 153.301 74.4383ZM143.509 86.4623C144.981 84.7343 146.365 82.0463 147.661 78.3983C145.533 79.3263 143.845 80.3423 142.597 81.4463C141.349 82.5343 140.477 83.6543 139.981 84.8063C139.549 85.7983 139.453 86.6303 139.693 87.3023C139.933 87.9583 140.397 88.2383 141.085 88.1423C141.837 88.0303 142.645 87.4703 143.509 86.4623Z" fill="white"/>
<path d="M144.629 74.4383C144.677 74.3583 144.749 74.3583 144.845 74.4383C144.941 74.5023 144.965 74.5743 144.917 74.6543C144.677 75.0703 144.309 75.4863 143.813 75.9023C143.061 76.4943 141.853 77.1583 140.189 77.8943C139.773 78.9663 139.445 79.8063 139.205 80.4143C138.821 81.3583 138.469 82.1823 138.149 82.8863C137.333 84.6623 136.557 85.9823 135.821 86.8463C134.797 88.0303 133.773 88.6543 132.749 88.7183C131.805 88.7823 131.109 88.4063 130.661 87.5903C130.197 86.7583 130.173 85.7663 130.589 84.6143C131.053 83.2863 132.029 82.0463 133.517 80.8943C135.181 79.6143 137.117 78.4943 139.325 77.5343L139.661 76.5743C139.741 76.3823 139.837 76.1423 139.949 75.8543L140.093 75.4463L140.261 75.0383C140.517 74.3503 140.733 73.7903 140.909 73.3583C139.901 74.5903 138.909 75.6383 137.933 76.5023C136.797 77.5103 135.973 77.9663 135.461 77.8703C135.077 77.8063 134.861 77.5983 134.813 77.2463C134.733 76.5423 135.101 75.5183 135.917 74.1743L136.157 73.7903L136.397 73.4303C136.589 73.1263 136.733 72.8863 136.829 72.7103C137.117 72.2143 137.285 71.8383 137.333 71.5823C137.333 71.4703 137.397 71.3903 137.525 71.3423C137.637 71.3103 137.773 71.3183 137.933 71.3663C138.093 71.4143 138.213 71.4863 138.293 71.5823C138.389 71.6943 138.397 71.8143 138.317 71.9423C138.269 72.1183 138.069 72.5103 137.717 73.1183C137.605 73.3103 137.437 73.5903 137.213 73.9583L136.949 74.4143L136.685 74.8463C135.773 76.3823 135.421 77.1903 135.629 77.2703C135.901 77.3823 136.853 76.6623 138.485 75.1103C140.165 73.5263 141.309 72.2063 141.917 71.1503L142.013 70.9823L142.085 70.8383V70.8143C142.101 70.7983 142.125 70.7583 142.157 70.6943C142.253 70.5823 142.437 70.5743 142.709 70.6703C142.949 70.7663 143.101 70.8783 143.165 71.0063C142.653 71.7423 141.821 73.6143 140.669 76.6223C140.605 76.7823 140.565 76.9023 140.549 76.9823C141.653 76.4543 142.581 75.9663 143.333 75.5183C143.813 75.2303 144.245 74.8703 144.629 74.4383ZM134.837 86.4623C136.309 84.7343 137.693 82.0463 138.989 78.3983C136.861 79.3263 135.173 80.3423 133.925 81.4463C132.677 82.5343 131.805 83.6543 131.309 84.8063C130.877 85.7983 130.781 86.6303 131.021 87.3023C131.261 87.9583 131.725 88.2383 132.413 88.1423C133.165 88.0303 133.973 87.4703 134.837 86.4623Z" fill="white"/>
<path d="M127.678 71.6543C127.582 72.0223 127.246 72.6623 126.67 73.5743L126.31 74.1263L125.95 74.7263C125.678 75.2063 125.454 75.6543 125.278 76.0703C125.534 75.7663 125.902 75.2863 126.382 74.6303L126.958 73.7903L127.558 72.9743C128.518 71.7263 129.174 71.1343 129.526 71.1983C129.734 71.2303 129.902 71.3423 130.03 71.5343C130.158 71.6943 130.222 71.8543 130.222 72.0143C130.222 72.2383 130.134 72.6383 129.958 73.2143C129.878 73.4383 129.782 73.7023 129.67 74.0063L129.382 74.8463C128.854 76.2543 128.638 76.9823 128.734 77.0303C128.814 77.0623 129.414 76.1103 130.534 74.1743C131.062 73.2783 131.478 72.6143 131.782 72.1823C132.214 71.5743 132.518 71.2703 132.694 71.2703C132.854 71.2703 133.022 71.3743 133.198 71.5823C133.358 71.7743 133.422 71.9423 133.39 72.0863C133.342 72.3103 133.238 72.6863 133.078 73.2143C133.03 73.3903 132.958 73.6303 132.862 73.9343L132.646 74.7023C132.262 75.9663 132.086 76.6783 132.118 76.8383C132.198 77.1903 132.822 77.0783 133.99 76.5023C134.39 76.3103 134.814 76.0863 135.262 75.8303C135.422 75.7343 135.574 75.6383 135.718 75.5423C135.846 75.4623 135.934 75.4063 135.982 75.3743C136.094 75.2943 136.182 75.3023 136.246 75.3983C136.294 75.4943 136.278 75.5823 136.198 75.6623C136.134 75.7263 136.054 75.8063 135.958 75.9023C135.814 76.0143 135.67 76.1343 135.526 76.2623C135.126 76.5823 134.726 76.8543 134.326 77.0783C133.19 77.7183 132.326 77.8223 131.734 77.3903C131.398 77.1503 131.246 76.7103 131.278 76.0703C131.278 75.5583 131.398 74.9343 131.638 74.1983C131.734 73.9103 131.838 73.6063 131.95 73.2863C132.046 73.0463 132.15 72.7903 132.262 72.5183L132.55 71.7983C132.502 71.8143 132.294 72.1583 131.926 72.8303L131.806 73.0703L131.662 73.3103L131.374 73.8383C131.134 74.2863 130.926 74.6703 130.75 74.9903C129.55 77.0703 128.75 78.0463 128.35 77.9183C127.87 77.7583 127.646 77.3343 127.678 76.6463C127.71 76.1183 127.894 75.4143 128.23 74.5343C128.358 74.2303 128.51 73.8863 128.686 73.5023L128.902 73.0223C128.982 72.8303 129.038 72.6943 129.07 72.6143C129.31 72.0703 129.374 71.8223 129.262 71.8703C128.974 71.9823 128.166 73.0063 126.838 74.9423C126.342 75.6623 125.846 76.4143 125.35 77.1983C124.902 77.8863 124.582 78.3903 124.39 78.7103C124.342 78.8543 124.222 78.8783 124.03 78.7823C123.822 78.6863 123.702 78.5103 123.67 78.2543C123.574 77.5503 124.046 76.2623 125.086 74.3903L125.374 73.8383L125.662 73.3343C125.918 72.9023 126.102 72.5823 126.214 72.3743C126.566 71.7023 126.766 71.2383 126.814 70.9823C126.83 70.8703 126.886 70.8143 126.982 70.8143C127.078 70.8143 127.19 70.8543 127.318 70.9343C127.446 71.0303 127.542 71.1423 127.606 71.2703C127.686 71.3983 127.71 71.5263 127.678 71.6543Z" fill="white"/>
<path d="M125.161 74.4143C125.337 74.3983 125.449 74.4703 125.497 74.6303C123.657 77.0303 122.041 78.2303 120.649 78.2303C120.313 78.2303 120.017 78.1583 119.761 78.0143C119.457 77.8543 119.273 77.6303 119.209 77.3423C118.889 76.1583 119.257 74.4063 120.313 72.0863L120.001 72.5423L119.665 73.0223L118.993 74.0063C118.465 74.7423 118.001 75.3503 117.601 75.8303C116.561 77.1103 115.793 77.7183 115.297 77.6543C114.881 77.5903 114.553 77.4383 114.313 77.1983C114.041 76.9423 113.953 76.6303 114.049 76.2623C114.337 75.1903 115.041 73.9983 116.161 72.6863C117.377 71.2463 118.393 70.5983 119.209 70.7423C119.673 70.8063 119.993 70.9663 120.169 71.2223C120.809 70.3743 121.321 69.7743 121.705 69.4223C121.865 69.3583 122.041 69.3583 122.233 69.4223C122.441 69.4863 122.593 69.6063 122.689 69.7823C122.465 70.1183 122.185 70.6303 121.849 71.3183C121.433 72.1663 121.081 72.9663 120.793 73.7183C119.977 75.8943 119.913 77.1663 120.601 77.5343C120.921 77.6943 121.665 77.3503 122.833 76.5023C123.921 75.7183 124.697 75.0223 125.161 74.4143ZM115.177 76.9583C115.545 76.9903 116.209 76.4143 117.169 75.2303C117.489 74.8303 117.929 74.2463 118.489 73.4783L119.161 72.5423L119.857 71.6303C119.761 71.3263 119.537 71.2143 119.185 71.2943C118.785 71.3583 118.249 71.7743 117.577 72.5423C116.985 73.1983 116.417 73.9583 115.873 74.8223C115.041 76.1983 114.809 76.9103 115.177 76.9583Z" fill="white"/>
<path d="M109.511 78.3983C107.383 79.3263 105.695 80.3423 104.447 81.4463C103.199 82.5343 102.327 83.6543 101.831 84.8063C101.399 85.7983 101.303 86.6303 101.543 87.3023C101.783 87.9583 102.247 88.2383 102.935 88.1423C103.687 88.0303 104.495 87.4703 105.359 86.4623C106.831 84.7343 108.215 82.0463 109.511 78.3983ZM104.495 69.9983C104.575 70.5423 104.807 70.9663 105.191 71.2703C105.543 71.5263 105.959 71.6783 106.439 71.7263C106.679 71.4703 106.903 71.2063 107.111 70.9343C107.287 70.6943 107.423 70.4943 107.519 70.3343C108.063 69.3423 108.367 68.4383 108.431 67.6223C108.495 66.6943 108.159 66.2063 107.423 66.1583C106.927 66.1263 106.407 66.3503 105.863 66.8303C105.367 67.2783 104.999 67.7743 104.759 68.3183C104.503 68.9103 104.415 69.4703 104.495 69.9983ZM112.487 70.6223C109.399 71.6623 107.599 72.2383 107.087 72.3503C106.527 72.8303 105.791 73.5583 104.879 74.5343C104.735 74.6623 104.599 74.7903 104.471 74.9183C104.343 75.0303 104.095 75.2543 103.727 75.5903C103.615 75.7023 103.519 75.6543 103.439 75.4463C103.343 75.2383 103.375 75.0783 103.535 74.9663C103.967 74.5503 104.703 73.8143 105.743 72.7583C105.903 72.5983 106.031 72.4383 106.127 72.2783H105.911C105.447 72.1823 105.047 72.0143 104.711 71.7743C104.119 71.3583 103.775 70.7743 103.679 70.0223C103.567 69.3183 103.679 68.6063 104.015 67.8863C104.335 67.1503 104.791 66.5823 105.383 66.1823C106.039 65.7343 106.735 65.5743 107.471 65.7023C108.527 65.8943 109.119 66.5023 109.247 67.5263C109.359 68.4223 109.135 69.3983 108.575 70.4543C108.447 70.6943 108.199 71.0463 107.831 71.5103C108.231 71.3023 108.615 71.1423 108.983 71.0303C109.143 70.9823 109.343 70.9183 109.583 70.8383L110.207 70.6463C111.679 70.1823 112.567 70.0143 112.871 70.1423C113.015 70.2223 113.103 70.3503 113.135 70.5263C113.279 71.4063 112.407 72.4063 110.519 73.5263C110.199 73.7343 109.799 73.9663 109.319 74.2223L108.695 74.5583L108.095 74.8943C107.135 75.4383 106.447 75.8543 106.031 76.1423C106.751 75.8223 107.471 75.6143 108.191 75.5183C109.039 75.4063 109.687 75.4783 110.135 75.7343C110.663 76.0383 110.919 76.4703 110.903 77.0303C112.151 76.4543 113.135 75.9503 113.855 75.5183C114.335 75.2303 114.767 74.8703 115.151 74.4383C115.199 74.3583 115.271 74.3583 115.367 74.4383C115.463 74.5023 115.487 74.5743 115.439 74.6543C115.199 75.0703 114.831 75.4863 114.335 75.9023C113.583 76.4943 112.375 77.1583 110.711 77.8943C110.295 78.9663 109.967 79.8063 109.727 80.4143C109.343 81.3583 108.991 82.1823 108.671 82.8863C107.855 84.6623 107.079 85.9823 106.343 86.8463C105.319 88.0303 104.295 88.6543 103.271 88.7183C102.327 88.7823 101.631 88.4063 101.183 87.5903C100.719 86.7583 100.695 85.7663 101.111 84.6143C101.575 83.2863 102.551 82.0463 104.039 80.8943C105.687 79.6303 107.599 78.5183 109.775 77.5583C110.111 76.7743 110.119 76.3103 109.799 76.1663C109.383 75.9743 108.639 75.9903 107.567 76.2143C106.479 76.4223 105.679 76.7263 105.167 77.1263C105.023 77.0943 104.911 77.0063 104.831 76.8623C104.959 76.4623 105.471 75.9343 106.367 75.2783C106.703 75.0383 107.135 74.7503 107.663 74.4143L108.383 73.9583L109.127 73.5263C110.359 72.7583 111.207 72.1903 111.671 71.8223C112.231 71.3743 112.503 70.9743 112.487 70.6223Z" fill="white"/>
<path d="M104.223 74.4383C104.271 74.3583 104.343 74.3583 104.439 74.4383C104.535 74.5023 104.559 74.5743 104.511 74.6543C104.271 75.0703 103.903 75.4863 103.407 75.9023C102.655 76.4943 101.447 77.1583 99.7832 77.8943C99.3672 78.9663 99.0392 79.8063 98.7992 80.4143C98.4152 81.3583 98.0632 82.1823 97.7432 82.8863C96.9272 84.6623 96.1512 85.9823 95.4152 86.8463C94.3912 88.0303 93.3672 88.6543 92.3432 88.7183C91.3992 88.7823 90.7032 88.4063 90.2552 87.5903C89.7912 86.7583 89.7672 85.7663 90.1832 84.6143C90.6472 83.2863 91.6232 82.0463 93.1112 80.8943C94.7752 79.6143 96.7112 78.4943 98.9192 77.5343L99.2552 76.5743C99.3352 76.3823 99.4312 76.1423 99.5432 75.8543L99.6872 75.4463L99.8552 75.0383C100.111 74.3503 100.327 73.7903 100.503 73.3583C99.4952 74.5903 98.5032 75.6383 97.5272 76.5023C96.3912 77.5103 95.5672 77.9663 95.0552 77.8703C94.6712 77.8063 94.4552 77.5983 94.4072 77.2463C94.3272 76.5423 94.6952 75.5183 95.5112 74.1743L95.7512 73.7903L95.9912 73.4303C96.1832 73.1263 96.3272 72.8863 96.4232 72.7103C96.7112 72.2143 96.8792 71.8383 96.9272 71.5823C96.9272 71.4703 96.9912 71.3903 97.1192 71.3423C97.2312 71.3103 97.3672 71.3183 97.5272 71.3663C97.6872 71.4143 97.8072 71.4863 97.8872 71.5823C97.9832 71.6943 97.9912 71.8143 97.9112 71.9423C97.8632 72.1183 97.6632 72.5103 97.3112 73.1183C97.1992 73.3103 97.0312 73.5903 96.8072 73.9583L96.5432 74.4143L96.2792 74.8463C95.3672 76.3823 95.0152 77.1903 95.2232 77.2703C95.4952 77.3823 96.4472 76.6623 98.0792 75.1103C99.7592 73.5263 100.903 72.2063 101.511 71.1503L101.607 70.9823L101.679 70.8383V70.8143C101.695 70.7983 101.719 70.7583 101.751 70.6943C101.847 70.5823 102.031 70.5743 102.303 70.6703C102.543 70.7663 102.695 70.8783 102.759 71.0063C102.247 71.7423 101.415 73.6143 100.263 76.6223C100.199 76.7823 100.159 76.9023 100.143 76.9823C101.247 76.4543 102.175 75.9663 102.927 75.5183C103.407 75.2303 103.839 74.8703 104.223 74.4383ZM94.4312 86.4623C95.9032 84.7343 97.2872 82.0463 98.5832 78.3983C96.4552 79.3263 94.7672 80.3423 93.5192 81.4463C92.2712 82.5343 91.3992 83.6543 90.9032 84.8063C90.4712 85.7983 90.3752 86.6303 90.6152 87.3023C90.8552 87.9583 91.3192 88.2383 92.0072 88.1423C92.7592 88.0303 93.5672 87.4703 94.4312 86.4623Z" fill="white"/>
<path d="M79.533 72.2783C79.917 72.0063 80.957 71.9663 82.653 72.1583L83.613 72.2783C84.013 72.3263 84.301 72.3583 84.477 72.3743C85.101 72.4543 85.509 72.4703 85.701 72.4223C85.765 72.4063 85.821 72.4143 85.869 72.4463C85.917 72.4783 85.949 72.5343 85.965 72.6143C85.981 72.6783 85.981 72.7343 85.965 72.7823C85.949 72.8463 85.909 72.8863 85.845 72.9023C85.605 72.9823 85.165 73.0143 84.525 72.9983C84.269 72.9823 83.957 72.9663 83.589 72.9503L82.605 72.8783C80.893 72.7503 79.941 72.7503 79.749 72.8783C79.733 72.9263 79.693 72.9343 79.629 72.9023C79.581 72.8703 79.541 72.8223 79.509 72.7583C79.461 72.6783 79.437 72.5983 79.437 72.5183C79.437 72.4223 79.469 72.3423 79.533 72.2783Z" fill="white"/>
<path d="M65.7297 78.3983C63.6017 79.3263 61.9136 80.3423 60.6656 81.4463C59.4176 82.5343 58.5456 83.6543 58.0496 84.8063C57.6176 85.7983 57.5217 86.6303 57.7617 87.3023C58.0017 87.9583 58.4657 88.2383 59.1537 88.1423C59.9057 88.0303 60.7137 87.4703 61.5777 86.4623C63.0497 84.7343 64.4337 82.0463 65.7297 78.3983ZM60.7136 69.9983C60.7936 70.5423 61.0257 70.9663 61.4097 71.2703C61.7617 71.5263 62.1776 71.6783 62.6576 71.7263C62.8977 71.4703 63.1217 71.2063 63.3297 70.9343C63.5057 70.6943 63.6417 70.4943 63.7377 70.3343C64.2817 69.3423 64.5857 68.4383 64.6497 67.6223C64.7137 66.6943 64.3777 66.2063 63.6417 66.1583C63.1457 66.1263 62.6256 66.3503 62.0816 66.8303C61.5856 67.2783 61.2176 67.7743 60.9776 68.3183C60.7216 68.9103 60.6336 69.4703 60.7136 69.9983ZM68.7057 70.6223C65.6177 71.6623 63.8177 72.2383 63.3057 72.3503C62.7457 72.8303 62.0097 73.5583 61.0977 74.5343C60.9537 74.6623 60.8177 74.7903 60.6897 74.9183C60.5617 75.0303 60.3137 75.2543 59.9457 75.5903C59.8337 75.7023 59.7376 75.6543 59.6576 75.4463C59.5616 75.2383 59.5937 75.0783 59.7537 74.9663C60.1857 74.5503 60.9217 73.8143 61.9617 72.7583C62.1217 72.5983 62.2496 72.4383 62.3456 72.2783H62.1297C61.6657 72.1823 61.2656 72.0143 60.9296 71.7743C60.3376 71.3583 59.9937 70.7743 59.8977 70.0223C59.7857 69.3183 59.8977 68.6063 60.2337 67.8863C60.5537 67.1503 61.0097 66.5823 61.6017 66.1823C62.2577 65.7343 62.9537 65.5743 63.6897 65.7023C64.7457 65.8943 65.3377 66.5023 65.4657 67.5263C65.5777 68.4223 65.3536 69.3983 64.7936 70.4543C64.6656 70.6943 64.4177 71.0463 64.0497 71.5103C64.4497 71.3023 64.8337 71.1423 65.2017 71.0303C65.3617 70.9823 65.5617 70.9183 65.8017 70.8383L66.4257 70.6463C67.8977 70.1823 68.7857 70.0143 69.0897 70.1423C69.2337 70.2223 69.3217 70.3503 69.3537 70.5263C69.4977 71.4063 68.6256 72.4063 66.7376 73.5263C66.4176 73.7343 66.0177 73.9663 65.5377 74.2223L64.9137 74.5583L64.3137 74.8943C63.3537 75.4383 62.6657 75.8543 62.2497 76.1423C62.9697 75.8223 63.6897 75.6143 64.4097 75.5183C65.2577 75.4063 65.9057 75.4783 66.3537 75.7343C66.8817 76.0383 67.1377 76.4703 67.1217 77.0303C68.3697 76.4543 69.3536 75.9503 70.0736 75.5183C70.5536 75.2303 70.9857 74.8703 71.3697 74.4383C71.4177 74.3583 71.4896 74.3583 71.5856 74.4383C71.6816 74.5023 71.7056 74.5743 71.6576 74.6543C71.4176 75.0703 71.0497 75.4863 70.5536 75.9023C69.8017 76.4943 68.5936 77.1583 66.9296 77.8943C66.5136 78.9663 66.1856 79.8063 65.9456 80.4143C65.5616 81.3583 65.2096 82.1823 64.8896 82.8863C64.0736 84.6623 63.2976 85.9823 62.5616 86.8463C61.5376 88.0303 60.5137 88.6543 59.4897 88.7183C58.5457 88.7823 57.8496 88.4063 57.4016 87.5903C56.9376 86.7583 56.9137 85.7663 57.3297 84.6143C57.7937 83.2863 58.7697 82.0463 60.2577 80.8943C61.9057 79.6303 63.8177 78.5183 65.9937 77.5583C66.3297 76.7743 66.3376 76.3103 66.0176 76.1663C65.6016 75.9743 64.8577 75.9903 63.7857 76.2143C62.6977 76.4223 61.8977 76.7263 61.3857 77.1263C61.2417 77.0943 61.1297 77.0063 61.0497 76.8623C61.1777 76.4623 61.6897 75.9343 62.5857 75.2783C62.9217 75.0383 63.3537 74.7503 63.8817 74.4143L64.6016 73.9583L65.3456 73.5263C66.5777 72.7583 67.4256 72.1903 67.8896 71.8223C68.4496 71.3743 68.7217 70.9743 68.7057 70.6223Z" fill="white"/>
<path d="M52.7374 76.4303C53.1054 76.0143 53.4734 75.5263 53.8414 74.9663C54.2254 74.4063 54.3934 74.0463 54.3454 73.8863C54.3134 73.7103 54.2094 73.6383 54.0334 73.6703C53.7774 73.6703 53.4814 73.8623 53.1454 74.2463C52.8574 74.5663 52.5774 74.9663 52.3054 75.4463C52.0494 75.8943 51.8814 76.2783 51.8014 76.5983C51.7214 76.9343 51.7694 77.0863 51.9454 77.0543C52.1054 77.0383 52.3694 76.8303 52.7374 76.4303ZM54.7294 74.6303C56.6014 72.8223 57.6414 71.5583 57.8494 70.8383C57.9134 70.6463 58.0814 70.6463 58.3534 70.8383C58.6254 71.0463 58.7694 71.2303 58.7854 71.3903C58.7854 71.6143 58.6174 72.0303 58.2814 72.6383C58.1534 72.8783 57.9774 73.1743 57.7534 73.5263L57.4654 74.0063L57.1774 74.4623C56.2014 76.0943 55.8334 77.0383 56.0734 77.2943C56.2494 77.4863 57.0254 77.0703 58.4014 76.0463C58.8494 75.7263 59.3214 75.3663 59.8174 74.9663C59.9774 74.8383 60.1294 74.7103 60.2734 74.5823C60.3214 74.5503 60.3614 74.5183 60.3934 74.4863L60.4414 74.4383C60.5054 74.3903 60.5774 74.3903 60.6574 74.4383C60.7534 74.4863 60.7774 74.5583 60.7294 74.6543L60.6814 74.7023C60.6654 74.7343 60.6334 74.7823 60.5854 74.8463C60.4734 74.9743 60.3534 75.1183 60.2254 75.2783C59.8254 75.7423 59.4174 76.1583 59.0014 76.5263C57.6734 77.6783 56.5614 78.0863 55.6654 77.7503C54.8174 77.4303 54.8574 76.4863 55.7854 74.9183C55.9454 74.6463 56.1294 74.3583 56.3374 74.0543L56.6014 73.6463C56.6814 73.5503 56.7694 73.4303 56.8654 73.2863C57.2334 72.7743 57.4094 72.5023 57.3934 72.4703C57.3774 72.5023 57.2974 72.6063 57.1534 72.7823C56.9934 72.9903 56.8094 73.2223 56.6014 73.4783C56.0414 74.1663 55.4814 74.8063 54.9214 75.3983C53.1934 77.1903 51.9774 78.0223 51.2734 77.8943C50.9054 77.8303 50.6974 77.6143 50.6494 77.2463C50.5534 76.5423 50.9134 75.5183 51.7294 74.1743L51.9694 73.7903L52.2094 73.4303C52.4014 73.1103 52.5454 72.8703 52.6414 72.7103C52.9294 72.2143 53.0974 71.8383 53.1454 71.5823C53.1454 71.4703 53.2094 71.3903 53.3374 71.3423C53.4494 71.3103 53.5854 71.3183 53.7454 71.3663C53.9054 71.4143 54.0254 71.4863 54.1054 71.5823C54.2014 71.6943 54.2094 71.8143 54.1294 71.9423C54.0814 72.1343 53.8894 72.5263 53.5534 73.1183C53.5374 73.1343 53.5214 73.1583 53.5054 73.1903C53.6494 73.1743 53.7934 73.1823 53.9374 73.2143C54.7694 73.2943 55.0654 73.7103 54.8254 74.4623L54.7294 74.6303Z" fill="white"/>
<path d="M62.8187 58.8863C63.0907 58.9023 63.2267 59.0943 63.2267 59.4623C63.2107 59.8143 63.0747 59.9823 62.8187 59.9663C61.6347 59.6943 59.5147 60.5103 56.4587 62.4143C55.4987 63.0383 53.9947 64.0943 51.9467 65.5823C49.5947 67.2943 47.2747 69.0383 44.9867 70.8143C46.5227 71.1983 47.3467 72.0703 47.4587 73.4303C47.5067 73.9423 47.4507 74.5823 47.2907 75.3503L47.0747 76.3823L46.8107 77.4143C46.2827 79.4623 46.1547 80.8703 46.4267 81.6383C46.6347 82.1823 47.0587 82.4543 47.6987 82.4543C48.3547 82.4383 48.9627 82.1103 49.5227 81.4703C49.5867 81.4063 49.6667 81.4063 49.7627 81.4703C49.8427 81.5343 49.8667 81.6143 49.8347 81.7103C49.2907 82.6063 48.5947 83.0623 47.7467 83.0783C47.4107 83.0943 47.0747 83.0383 46.7387 82.9103C46.4667 82.8143 46.2267 82.6943 46.0187 82.5503C45.2667 82.0063 44.8987 81.1823 44.9147 80.0783C44.9307 79.3903 45.1467 78.3263 45.5627 76.8863L45.8267 75.9503L46.1147 75.0383C46.3067 74.3343 46.4027 73.7663 46.4027 73.3343C46.4347 72.1983 45.8267 71.5183 44.5787 71.2943C43.0747 73.6783 41.2427 75.9823 39.0827 78.2063C37.0027 80.3503 35.1787 81.8543 33.6107 82.7183C32.6187 83.2623 31.9467 83.4063 31.5947 83.1503C31.0667 82.7983 31.2507 82.0703 32.1467 80.9663C33.8267 78.8703 37.6907 75.4143 43.7387 70.5983C46.8107 65.6383 47.4267 62.2623 45.5867 60.4703C44.3867 59.3023 42.6347 58.9023 40.3307 59.2703C38.2667 59.6063 36.1387 60.4703 33.9467 61.8623C31.7707 63.2543 30.1307 64.7823 29.0267 66.4463C27.8107 68.2543 27.5307 69.8143 28.1867 71.1263C28.5227 71.7823 29.3707 72.2143 30.7307 72.4223C31.9947 72.6143 33.2427 72.5583 34.4747 72.2543C34.6187 72.2383 34.6987 72.3023 34.7147 72.4463C34.7467 72.5743 34.7067 72.6623 34.5947 72.7103C33.0107 73.3503 31.5467 73.5183 30.2027 73.2143C28.8907 72.9263 28.0107 72.2783 27.5627 71.2703C26.7787 69.5263 26.9707 67.6703 28.1387 65.7023C29.2107 63.9263 30.8667 62.3583 33.1067 60.9983C35.3467 59.6543 37.6187 58.8543 39.9227 58.5983C42.4187 58.3263 44.4507 58.7823 46.0187 59.9663C48.1467 61.5823 48.1467 64.5263 46.0187 68.7983C50.4827 65.3263 53.7787 62.9103 55.9067 61.5503C59.0107 59.5503 61.3147 58.6623 62.8187 58.8863ZM33.5147 81.9263C36.1707 80.1183 38.9627 77.2383 41.8907 73.2863C37.6667 76.7103 34.7547 79.3263 33.1547 81.1343C32.3707 81.9983 31.9547 82.5263 31.9067 82.7183C31.8107 82.9903 32.3467 82.7263 33.5147 81.9263Z" fill="white"/>
</svg>
